[IMG]http://i.imgur.com/K18df.jpg[/IMG]
[code]
Underworld Awakening 2012 R5 FULLLiNE XviD AC3-26K

Imdb: 
http://www.imdb.com/title/tt1496025/

Plot:
When human forces discover the existence of the Vampire and Lycan clans, a war to eradicate both species commences. The vampire warrioress Selene leads the battle against humankind.

Sources:
VIDEO-VOBS-Lum1x-  THNXS MAN
AUDIO-SIC!!! THNXS MAN!!

Notes:
THNXS TO Lum1x-  AND SIC !! you both rock!!
encoded the video of vobs then muxed the audio onto our encode so enjoy:P

Greetz:
Xtreme Encode|FYA|ILLUMANTI|CM8|RX|VISION|HDSCENE|NIGHTMAREZ|xTriLL|DTRG|CRYS|REMIXHD|BIDA|RX|REFILL|INSPiRAL|SIC|ZOMBIESZ|HOPE|Anonymous|GooN
To all the people who have helped me :P you know who you are

Anything to offer email us @: 26k@hushmail.me

Video
ID                                       : 0
Format                                   : MPEG-4 Visual
Format profile                           : Advanced Simple@L5
Format settings, BVOP                    : No
Format settings, QPel                    : No
Format settings, GMC                     : No warppoints
Format settings, Matrix                  : Custom
Codec ID                                 : XVID
Codec ID/Hint                            : XviD
Duration                                 : 1h 25mn
Bit rate                                 : 1 926 Kbps
Width                                    : 720 pixels
Height                                   : 304 pixels
Display aspect ratio                     : 2.35:1
Frame rate                               : 25.000 fps
Color space                              : YUV
Chroma subsampling                       : 4:2:0
Bit depth                                : 8 bits
Scan type                                : Progressive
Compression mode                         : Lossy
Bits/(Pixel*Frame)                       : 0.352
Stream size                              : 1.15 GiB (83%)
Writing library                          : XviD 64

Audio
ID                                       : 1
Format                                   : AC-3
Format/Info                              : Audio Coding 3
Mode extension                           : CM (complete main)
Codec ID                                 : 2000
Duration                                 : 1h 25mn
Bit rate mode                            : Constant
Bit rate                                 : 384 Kbps
Channel(s)                               : 2 channels
Channel positions                        : Front: L R
Sampling rate                            : 44.1 KHz
Bit depth                                : 16 bits
Compression mode                         : Lossy
Stream size                              : 234 MiB (17%)
Alignment                                : Aligned on interleaves
Interleave, duration                     : 70 ms (1.74 video frames)
Interleave, preload duration             : 208 ms
Title                                    : Underworld.Awakening.2012

[/code]
Screens:
[IMG]http://i.imgur.com/5KnNr.png[/IMG]
[IMG]http://i.imgur.com/cgX5D.png[/IMG]
[IMG]http://i.imgur.com/GkAIx.png[/IMG]
[IMG]http://i.imgur.com/kPytt.png[/IMG]
[IMG]http://i.imgur.com/XQtbR.png[/IMG]
[IMG]http://i.imgur.com/GwfWn.png[/IMG]
[IMG]http://i.imgur.com/jDssd.png[/IMG]
[IMG]http://i.imgur.com/x6MeO.png[/IMG]
[IMG]http://i.imgur.com/POIhe.png[/IMG]
[IMG]http://i.imgur.com/4Nmdt.png[/IMG]
[IMG]http://i.imgur.com/XVIQM.png[/IMG]
[IMG]http://i.imgur.com/62X4p.png[/IMG]
[IMG]http://i.imgur.com/LkxUy.png[/IMG]

[img]http://img851.imageshack.us/img851/5503/26ks.jpg[/img]
Thank you smallz for banner!